<svg width="18" height="18" viewBox="0 0 18 18" fill="none" xmlns="http://www.w3.org/2000/svg">
<path d="M8.69658 4.17383C6.24149 4.17383 4.20728 6.17296 4.20728 8.66321C4.20728 11.1534 6.20641 13.1525 8.69658 13.1525C11.1868 13.1525 13.1859 11.1183 13.1859 8.66321C13.1859 6.20804 11.1517 4.17383 8.69658 4.17383ZM8.69658 11.5392C7.11832 11.5392 5.82062 10.2415 5.82062 8.66321C5.82062 7.08487 7.11832 5.78717 8.69658 5.78717C10.2748 5.78717 11.5725 7.08487 11.5725 8.66321C11.5725 10.2415 10.2748 11.5392 8.69658 11.5392Z" fill="white"/>
<path d="M13.3609 5.08597C13.9226 5.08597 14.378 4.63058 14.378 4.06883C14.378 3.50716 13.9226 3.05176 13.3609 3.05176C12.7991 3.05176 12.3438 3.50716 12.3438 4.06883C12.3438 4.63058 12.7991 5.08597 13.3609 5.08597Z" fill="white"/>
<path d="M15.9932 1.43802C15.0813 0.491034 13.7836 0 12.3106 0H5.08558C2.03421 0 0 2.03422 0 5.08558V12.2755C0 13.7836 0.491034 15.0813 1.4731 16.0283C2.42001 16.9402 3.68264 17.3962 5.12066 17.3962H12.2755C13.7836 17.3962 15.0463 16.9052 15.9582 16.0283C16.9052 15.1164 17.3962 13.8187 17.3962 12.3106V5.08558C17.3962 3.61248 16.9052 2.34985 15.9932 1.43802ZM15.853 12.3106C15.853 13.3978 15.4671 14.2747 14.8359 14.8709C14.2045 15.4671 13.3277 15.7829 12.2755 15.7829H5.12066C4.06843 15.7829 3.1916 15.4671 2.56033 14.8709C1.92898 14.2396 1.61334 13.3628 1.61334 12.2755V5.08558C1.61334 4.03335 1.92898 3.1566 2.56033 2.52525C3.1566 1.92898 4.06843 1.61334 5.12066 1.61334H12.3457C13.3978 1.61334 14.2747 1.92898 14.906 2.56033C15.5022 3.1916 15.853 4.06843 15.853 5.08558V12.3106Z" fill="white"/>
</svg>
