<svg width="31" height="38" viewBox="0 0 31 38" fill="none" xmlns="http://www.w3.org/2000/svg">
<path d="M15.0132 23.2641C11.0143 23.2641 7.76099 19.8997 7.76099 15.7644C7.76099 11.6341 11.0144 8.27393 15.0132 8.27393C19.0171 8.27393 22.2744 11.6341 22.2744 15.7644C22.2743 19.8998 19.017 23.2641 15.0132 23.2641ZM15.0132 9.35523C11.5916 9.35523 8.8079 12.2303 8.8079 15.7644C8.8079 19.3036 11.5916 22.1828 15.0132 22.1828C18.4397 22.1828 21.2275 19.3035 21.2275 15.7644C21.2274 12.2304 18.4397 9.35523 15.0132 9.35523Z" fill="#FF4242"/>
<path d="M15.0111 37.4405C14.8438 37.4405 14.6866 37.3579 14.588 37.2181C12.6368 34.4524 10.3503 32.2628 8.13893 30.1452C3.95339 26.1372 0 22.3516 0 15.762C0 7.213 6.73397 0.257812 15.0111 0.257812C23.2955 0.257812 30.0354 7.213 30.0354 15.762C30.0354 22.3496 26.0794 26.1344 21.891 30.1414C19.6765 32.2601 17.3865 34.4508 15.4343 37.2181C15.3356 37.3578 15.1783 37.4405 15.0111 37.4405ZM15.0111 1.33925C7.31121 1.33925 1.04691 7.80921 1.04691 15.762C1.04691 21.8795 4.66332 25.3425 8.85069 29.3524C10.9427 31.3556 13.1009 33.4224 15.0111 35.9968C16.9229 33.4203 19.0842 31.3526 21.1795 29.3482C25.3697 25.3394 28.9885 21.8773 28.9885 15.762C28.9884 7.80921 22.7182 1.33925 15.0111 1.33925Z" fill="#FF4242"/>
</svg>
