<svg width="199" height="192" viewBox="0 0 199 192" fill="none" xmlns="http://www.w3.org/2000/svg">
<g filter="url(#filter0_d)">
<path d="M65.5232 125.445C65.056 126.094 64.5746 126.729 64.0931 127.364C62.4082 129.523 60.5109 131.598 58.0897 132.896C55.6686 134.195 52.6385 134.618 50.1749 133.404C46.1254 131.415 45.1343 126.15 45.1059 121.648C45.0635 112.644 47.8952 86.4643 58.9393 80.5086C66.2453 76.571 112.659 76.7969 118.365 78.6739C131.83 83.1054 135.865 112.164 136.177 120.124C136.304 123.201 136.049 126.687 133.727 128.719C130.711 131.372 125.897 130.13 122.542 127.9C116.722 124.047 112.729 117.866 106.825 114.168C105.692 113.463 104.46 112.842 103.13 112.715C101.629 112.588 100.156 113.11 98.6978 113.491C93.0908 114.959 87.1723 114.281 81.4379 113.434C79.8238 113.195 78.1531 112.94 76.5672 113.307C73.3248 114.07 71.2718 117.146 69.5444 119.983" stroke="#FF4545" stroke-width="2" stroke-miterlimit="10" stroke-linecap="round" stroke-linejoin="round"/>
<path d="M104.699 93.5774C105.945 92.9847 107.22 93.7327 107.942 94.904C108.664 96.0754 108.451 97.6984 107.531 98.7146C106.625 99.7448 105.11 100.14 103.765 99.8295C102.519 99.5331 101.414 98.5876 101.103 97.3597C100.777 96.1319 101.386 94.6782 102.547 94.1702" stroke="#FF4545" stroke-width="2" stroke-miterlimit="10" stroke-linecap="round" stroke-linejoin="round"/>
<path d="M112.063 85.3211C113.309 84.7283 114.583 85.4763 115.305 86.6477C116.027 87.8191 115.815 89.4421 114.894 90.4582C113.988 91.4885 112.473 91.8837 111.128 91.5732C109.882 91.2768 108.778 90.3312 108.466 89.1034C108.141 87.8755 108.749 86.4219 109.91 85.9138" stroke="#FF4545" stroke-width="2" stroke-miterlimit="10" stroke-linecap="round" stroke-linejoin="round"/>
<path d="M120.617 92.9422C121.863 92.3494 123.138 93.0974 123.86 94.2688C124.582 95.4402 124.369 97.0632 123.449 98.0793C122.543 99.1096 121.028 99.5047 119.683 99.1943C118.437 98.8979 117.332 97.9523 117.021 96.7245C116.695 95.4966 117.304 94.043 118.465 93.5349" stroke="#FF4545" stroke-width="2" stroke-miterlimit="10" stroke-linecap="round" stroke-linejoin="round"/>
<path d="M112.844 100.845C114.09 100.253 115.364 101.001 116.086 102.172C116.808 103.343 116.596 104.966 115.676 105.983C114.769 107.013 113.254 107.408 111.909 107.098C110.663 106.801 109.559 105.856 109.247 104.628C108.922 103.4 109.531 101.946 110.692 101.438" stroke="#FF4545" stroke-width="2" stroke-miterlimit="10" stroke-linecap="round" stroke-linejoin="round"/>
<path d="M62.9745 101.523C62.9745 101.523 59.3215 101.466 58.8826 98.7849C58.826 98.3897 58.7268 97.9945 58.7552 97.5994C58.826 96.5691 59.5197 95.6094 60.4684 95.2143C60.9923 95.0026 61.5586 94.9461 62.125 94.9038C63.2436 94.8191 65.9338 94.932 65.9338 94.932C65.9338 94.932 65.7497 92.4199 65.7356 91.1638C65.7214 89.9077 66.1178 88.4964 67.2223 87.8896C67.7037 87.6214 68.27 87.5367 68.8222 87.5085C70.0399 87.4379 71.4416 87.6779 72.1354 88.6799C72.5177 89.2303 72.631 89.9218 72.716 90.5852C72.9 92.0811 72.9991 95.1155 72.9991 95.1155C72.9991 95.1155 75.0947 95.059 76.1424 95.0308C77.2185 95.0026 78.4645 95.0308 79.1725 95.8352C79.668 96.3856 79.7813 97.1901 79.7955 97.9381C79.8096 98.9966 79.5831 100.168 78.7335 100.803C78.2238 101.184 77.5583 101.297 76.9212 101.382C75.5478 101.579 72.7867 101.763 72.7867 101.763C72.7867 101.763 72.7584 104.543 72.5177 105.912C72.3761 106.716 72.1638 107.535 71.6257 108.142C70.7903 109.073 69.2753 109.243 68.1426 108.692C67.0099 108.156 66.2311 107.027 65.863 105.827C65.4948 104.628 65.6364 102.087 65.6364 102.087" stroke="#FF4545" stroke-width="2" stroke-miterlimit="10" stroke-linecap="round" stroke-linejoin="round"/>
<path d="M82.0312 78.7587L82.1728 88.6661L97.507 88.0733L97.4363 78.4341" stroke="#FF4545" stroke-width="2" stroke-miterlimit="10" stroke-linecap="round" stroke-linejoin="round"/>
<path d="M143.384 118.713L143.129 126.856L150.831 126.8L150.548 118.741L143.384 118.713Z" stroke="#FF4545" stroke-width="2" stroke-miterlimit="10" stroke-linecap="round" stroke-linejoin="round"/>
<path d="M136.628 66.1418L136.897 74.0451L144.614 74.1157L144.458 66.043L136.628 66.1418Z" stroke="#FF4545" stroke-width="2" stroke-miterlimit="10" stroke-linecap="round" stroke-linejoin="round"/>
<path d="M145.902 89.4849L155.502 98.0656" stroke="#FF4545" stroke-width="2" stroke-miterlimit="10" stroke-linecap="round" stroke-linejoin="round"/>
<path d="M146.34 99.0252L155.019 88.8638" stroke="#FF4545" stroke-width="2" stroke-miterlimit="10" stroke-linecap="round" stroke-linejoin="round"/>
<path d="M66.8398 134.788L76.1706 143.509" stroke="#FF4545" stroke-width="2" stroke-miterlimit="10" stroke-linecap="round" stroke-linejoin="round"/>
<path d="M66.9536 143.763L76.1994 134.322" stroke="#FF4545" stroke-width="2" stroke-miterlimit="10" stroke-linecap="round" stroke-linejoin="round"/>
<path d="M91.5317 54.5405L97.436 44.873L102.703 54.4558L91.5317 54.5405Z" stroke="#FF4545" stroke-width="2" stroke-miterlimit="10" stroke-linecap="round" stroke-linejoin="round"/>
<path d="M89.9727 152.429L95.4381 142.748L100.79 152.302L89.9727 152.429Z" stroke="#FF4545" stroke-width="2" stroke-miterlimit="10" stroke-linecap="round" stroke-linejoin="round"/>
<path d="M80.5742 118.148C82.3441 119.334 84.4963 119.813 86.6201 120.011C89.8484 120.307 93.1333 119.983 96.2482 119.08C98.4146 118.444 100.638 117.513 102.86 117.922C105.367 118.388 107.236 120.449 108.892 122.382" stroke="#FF4545" stroke-width="2" stroke-miterlimit="10" stroke-linecap="round" stroke-linejoin="round"/>
<path d="M69.3728 160.149C66.456 158.724 63.5959 157.072 60.8349 155.195C35.5611 138.034 25.4941 106.943 33.9187 79.2246" stroke="#FF4545" stroke-width="2" stroke-miterlimit="10" stroke-linecap="round" stroke-linejoin="round"/>
<path d="M102.661 31C114.795 31.5927 126.915 35.4174 137.676 42.728C168.826 63.8835 176.882 106.209 155.658 137.257C149.017 146.981 140.295 154.433 130.483 159.457" stroke="#FF4545" stroke-width="2" stroke-miterlimit="10" stroke-linecap="round" stroke-linejoin="round"/>
<path d="M89.3229 71.321C90.668 52.734 63.2137 58.5909 56.9696 54.7099C55.2846 53.6655 53.713 51.7884 54.1944 49.8549C56.1767 41.9375 71.9073 35.7983 83.008 33.3003" stroke="#FF4545" stroke-width="2" stroke-miterlimit="10" stroke-linecap="round" stroke-linejoin="round"/>
<path d="M122.212 60.4821C124.996 60.4821 127.253 58.2327 127.253 55.4579C127.253 52.683 124.996 50.4336 122.212 50.4336C119.429 50.4336 117.172 52.683 117.172 55.4579C117.172 58.2327 119.429 60.4821 122.212 60.4821Z" stroke="#FF4545" stroke-width="2" stroke-miterlimit="10" stroke-linecap="round" stroke-linejoin="round"/>
<path d="M125.811 147.969C128.594 147.969 130.851 145.72 130.851 142.945C130.851 140.17 128.594 137.921 125.811 137.921C123.027 137.921 120.77 140.17 120.77 142.945C120.77 145.72 123.027 147.969 125.811 147.969Z" stroke="#FF4545" stroke-width="2" stroke-miterlimit="10" stroke-linecap="round" stroke-linejoin="round"/>
</g>
<defs>
<filter id="filter0_d" x="0.00012207" y="0" width="198.509" height="191.149" filterUnits="userSpaceOnUse" color-interpolation-filters="sRGB">
<feFlood flood-opacity="0" result="BackgroundImageFix"/>
<feColorMatrix in="SourceAlpha" type="matrix" values="0 0 0 0 0 0 0 0 0 0 0 0 0 0 0 0 0 0 127 0"/>
<feOffset/>
<feGaussianBlur stdDeviation="15"/>
<feColorMatrix type="matrix" values="0 0 0 0 1 0 0 0 0 0.258824 0 0 0 0 0.258824 0 0 0 1 0"/>
<feBlend mode="normal" in2="BackgroundImageFix" result="effect1_dropShadow"/>
<feBlend mode="normal" in="SourceGraphic" in2="effect1_dropShadow" result="shape"/>
</filter>
</defs>
</svg>
