<svg width="92" height="100" viewBox="0 0 92 100" fill="none" xmlns="http://www.w3.org/2000/svg">
<path d="M53.0631 75.6152C52.9495 75.6312 52.8337 75.6128 52.7307 75.5623C50.9194 74.4007 50.021 73.1092 49.4743 71.4306C49.4498 71.359 49.4407 71.283 49.4475 71.2076C49.4544 71.1323 49.4771 71.0592 49.5141 70.9932C49.5512 70.9271 49.6017 70.8696 49.6625 70.8244C49.7233 70.7792 49.7929 70.7473 49.8669 70.7307C50.1848 70.6514 50.4209 70.8702 50.5413 71.1733C51.1049 72.5777 51.7456 73.5662 53.0342 74.4969C53.2967 74.6869 53.5159 74.9202 53.4268 75.2304C53.4088 75.3223 53.3651 75.4072 53.3007 75.4754C53.2363 75.5435 53.1539 75.592 53.0631 75.6152Z" fill="#FF4242" stroke="#FF4242" stroke-width="0.6"/>
<path d="M71.3486 52.3569H71.3076C71.1515 52.3452 71.0062 52.2724 70.9034 52.1545C70.8006 52.0365 70.7485 51.8828 70.7585 51.7268C70.7994 51.1496 70.8187 50.5604 70.8187 49.9784C70.8122 48.1754 70.6778 46.3752 70.4164 44.5913C70.3731 44.269 70.19 43.8433 70.4839 43.5932C70.7247 43.3816 71.2763 43.2854 71.416 43.7279C71.8025 45.7899 71.9976 47.883 71.9989 49.9808C71.9989 50.5892 71.9796 51.2049 71.9363 51.811C71.9253 51.9592 71.8587 52.0978 71.7497 52.1991C71.6407 52.3003 71.4974 52.3567 71.3486 52.3569Z" fill="#FF4242" stroke="#FF4242" stroke-width="0.6"/>
<path d="M69.6787 41.3133C69.56 41.3132 69.4441 41.2773 69.3461 41.2104C69.2481 41.1434 69.1726 41.0486 69.1295 40.9381C67.3246 36.2849 64.1477 32.2882 60.0191 29.4764C55.8904 26.6646 51.0043 25.1701 46.0067 25.1905C44.4069 25.1924 42.8109 25.3454 41.24 25.6474C40.5343 25.7845 39.1108 26.1813 38.3665 26.4026C38.0558 26.5012 37.7017 26.4747 37.6054 26.1621C37.5405 26.0184 37.5292 25.8565 37.5733 25.7052C37.6175 25.554 37.7143 25.4235 37.8462 25.3372C38.6122 24.9908 40.2549 24.6157 40.9967 24.481C42.6407 24.1651 44.3108 24.004 45.985 24C51.2185 23.9989 56.3306 25.5739 60.6535 28.5194C64.9764 31.4648 68.309 35.6437 70.2158 40.51C70.2726 40.6558 70.2692 40.8181 70.2065 40.9614C70.1438 41.1047 70.0267 41.2174 69.881 41.2748C69.8163 41.2991 69.7478 41.3121 69.6787 41.3133Z" fill="#FF4242" stroke="#FF4242" stroke-width="0.6"/>
<path d="M22.2497 57.8692C22.1232 57.8696 21.9999 57.8294 21.898 57.7546C21.7961 57.6797 21.7209 57.5741 21.6837 57.4534C21.6465 57.3327 21.6491 57.2032 21.6911 57.0841C21.7332 56.965 21.8125 56.8625 21.9173 56.7918C24.085 55.3271 25.1015 53.1627 25.1015 49.9785C25.0992 46.5557 25.941 43.1849 27.5523 40.1638C29.1637 37.1426 31.4952 34.564 34.341 32.6556C34.7365 32.3954 35.0196 31.9964 35.1343 31.5376C35.2489 31.0787 35.1867 30.5937 34.96 30.1785L34.8829 30.0366C34.7571 29.8082 34.585 29.6084 34.3777 29.4499C34.1704 29.2914 33.9324 29.1777 33.6787 29.116C33.425 29.0542 33.1613 29.0458 32.9042 29.0913C32.6471 29.1367 32.4023 29.2351 32.1853 29.38C28.7962 31.6443 26.0184 34.7077 24.0976 38.2993C22.1769 41.8908 21.1724 45.8998 21.173 49.9713V50.2262C21.174 50.3035 21.1596 50.3802 21.1308 50.4519C21.102 50.5236 21.0593 50.5889 21.0051 50.6441C20.951 50.6993 20.8864 50.7433 20.8152 50.7735C20.744 50.8037 20.6675 50.8196 20.5901 50.8202C20.4346 50.8196 20.2856 50.758 20.1752 50.6487C20.0648 50.5393 20.0019 50.3911 20 50.2358V49.9713C19.9981 45.7069 21.049 41.5077 23.0597 37.7455C25.0703 33.9832 27.9788 30.7738 31.5277 28.4012C31.8807 28.1656 32.2788 28.0057 32.6968 27.9317C33.1149 27.8578 33.5438 27.8713 33.9564 27.9714C34.3689 28.0716 34.7561 28.2562 35.0935 28.5136C35.4309 28.771 35.711 29.0955 35.9162 29.4666L35.9957 29.6085C36.3669 30.2829 36.4702 31.072 36.2849 31.8189C36.0997 32.5659 35.6396 33.2157 34.9961 33.6392C32.3135 35.4392 30.1155 37.8703 28.5958 40.7184C27.0761 43.5666 26.2814 46.7442 26.2817 49.9713C26.2817 53.533 25.0774 56.0799 22.5796 57.7609C22.4827 57.8286 22.3679 57.8662 22.2497 57.8692Z" fill="#FF4242" stroke="#FF4242" stroke-width="0.6"/>
<path d="M66.437 51.7051H66.4033C66.2471 51.6964 66.1008 51.6262 65.9965 51.5098C65.8922 51.3935 65.8384 51.2406 65.8469 51.0846C65.8662 50.7167 65.8782 50.3463 65.8782 49.9783C65.8782 42.4268 61.3957 35.4404 54.4637 32.1817C54.3897 32.1513 54.3227 32.1063 54.2667 32.0494C54.2107 31.9924 54.1668 31.9247 54.1378 31.8503C54.1088 31.7759 54.0953 31.6964 54.098 31.6166C54.1007 31.5368 54.1196 31.4584 54.1536 31.3862C54.1876 31.3139 54.2359 31.2493 54.2957 31.1962C54.3554 31.1432 54.4253 31.1028 54.5012 31.0776C54.577 31.0523 54.6572 31.0428 54.7369 31.0494C54.8166 31.0561 54.8941 31.0788 54.9647 31.1163C62.311 34.5794 67.0584 41.9722 67.0584 49.9711C67.0584 50.3607 67.0464 50.7551 67.0247 51.1423C67.0179 51.2936 66.9531 51.4364 66.8437 51.5412C66.7342 51.6459 66.5886 51.7046 66.437 51.7051Z" fill="#FF4242" stroke="#FF4242" stroke-width="0.6"/>
<path d="M41.0572 31.0373C40.9135 31.0379 40.7746 30.9861 40.6665 30.8916C40.5584 30.7972 40.4884 30.6666 40.4698 30.5243C40.4512 30.3821 40.4852 30.238 40.5654 30.1189C40.6456 29.9999 40.7665 29.9142 40.9054 29.8778C42.5637 29.4142 44.2733 29.1581 45.9948 29.1152C47.7592 29.1142 49.5168 29.334 51.2264 29.7696C51.3015 29.7887 51.3721 29.8224 51.4342 29.8688C51.4963 29.9151 51.5486 29.9733 51.5882 30.0398C51.6278 30.1064 51.6539 30.1801 51.6649 30.2567C51.676 30.3334 51.6719 30.4114 51.6527 30.4865C51.6336 30.5615 51.5998 30.632 51.5534 30.694C51.507 30.756 51.4488 30.8083 51.3821 30.8478C51.3155 30.8874 51.2417 30.9134 51.165 30.9245C51.0882 30.9355 51.0101 30.9314 50.935 30.9122C49.3207 30.5 47.6611 30.2915 45.9948 30.2916C44.3759 30.3346 42.7684 30.577 41.2089 31.0133C41.1594 31.0272 41.1085 31.0353 41.0572 31.0373Z" fill="#FF4242" stroke="#FF4242" stroke-width="0.6"/>
<path d="M68.3397 57.4961C66.261 57.4961 64.5846 56.9598 63.3393 55.8896C61.2944 54.1364 60.9909 51.4332 60.9909 49.9782C60.9934 48.1508 60.6561 46.3388 59.9961 44.6344C59.9652 44.5616 59.9492 44.4834 59.9492 44.4043C59.9492 44.3253 59.9651 44.247 59.996 44.1742C60.0269 44.1015 60.0721 44.0356 60.1291 43.9807C60.186 43.9257 60.2534 43.8827 60.3273 43.8543C60.4011 43.8259 60.48 43.8126 60.5591 43.8153C60.6383 43.8179 60.716 43.8364 60.7879 43.8697C60.8597 43.903 60.924 43.9504 60.9771 44.0091C61.0302 44.0677 61.0709 44.1364 61.0969 44.2111C61.8106 46.0518 62.1749 48.0092 62.1711 49.983C62.1711 51.236 62.412 53.5544 64.098 54.9998C65.4806 56.1878 67.5785 56.5774 70.334 56.1614C70.4123 56.1458 70.4929 56.1463 70.5709 56.1628C70.649 56.1793 70.7229 56.2114 70.7882 56.2572C70.8535 56.303 70.9088 56.3616 70.9508 56.4293C70.9928 56.4971 71.0206 56.5726 71.0325 56.6514C71.0444 56.7302 71.0401 56.8106 71.02 56.8877C70.9999 56.9648 70.9644 57.037 70.9155 57.1C70.8667 57.163 70.8055 57.2155 70.7358 57.2542C70.6661 57.2929 70.5892 57.3171 70.5098 57.3254C69.7918 57.4369 69.0663 57.494 68.3397 57.4961Z" fill="#FF4242" stroke="#FF4242" stroke-width="0.6"/>
<path d="M30.5793 53.0403C30.5537 53.0426 30.5278 53.0426 30.5022 53.0403C30.425 53.0305 30.3504 53.0055 30.283 52.9668C30.2155 52.928 30.1564 52.8762 30.1091 52.8145C30.0618 52.7527 30.0273 52.6822 30.0075 52.607C29.9878 52.5318 29.9832 52.4535 29.994 52.3765C30.099 51.5791 30.1521 50.7758 30.153 49.9715C30.1552 46.6777 31.1764 43.465 33.0769 40.7727C34.9775 38.0804 37.6645 36.0401 40.7706 34.9306C43.8767 33.8212 47.2503 33.6969 50.4298 34.5747C53.6094 35.4525 56.4398 37.2896 58.5339 39.8346C58.6345 39.9555 58.6829 40.1113 58.6684 40.2678C58.654 40.4243 58.5779 40.5687 58.4568 40.6692C58.3358 40.7696 58.1797 40.818 58.0229 40.8035C57.8662 40.7891 57.7216 40.7131 57.621 40.5922C55.6824 38.2344 53.0617 36.5321 50.1172 35.7181C47.1727 34.9041 44.0483 35.0182 41.1713 36.0447C38.2942 37.0712 35.8049 38.9601 34.044 41.4529C32.283 43.9458 31.3362 46.921 31.3332 49.9715C31.3321 50.824 31.2758 51.6756 31.1646 52.5208C31.147 52.6637 31.0779 52.7952 30.9701 52.8908C30.8624 52.9865 30.7234 53.0396 30.5793 53.0403Z" fill="#FF4242" stroke="#FF4242" stroke-width="0.6"/>
<path d="M24.2489 63.8983C24.1243 63.8966 24.0035 63.8555 23.9038 63.781C23.8041 63.7066 23.7305 63.6025 23.6936 63.4837C23.6567 63.3649 23.6584 63.2375 23.6984 63.1198C23.7385 63.002 23.8148 62.8999 23.9165 62.8281C25.9688 61.3951 27.5983 59.4383 28.6349 57.162C28.7054 57.0306 28.8232 56.9308 28.9646 56.8826C29.1059 56.8345 29.2603 56.8416 29.3965 56.9027C29.5328 56.9637 29.6408 57.074 29.6988 57.2114C29.7568 57.3488 29.7605 57.503 29.7091 57.643C28.5821 60.1097 26.8129 62.2292 24.5861 63.7805C24.4886 63.8538 24.3708 63.8949 24.2489 63.8983Z" fill="#FF4242" stroke="#FF4242" stroke-width="0.6"/>
<path d="M67.3098 63.439C64.4555 63.439 62.1047 62.602 60.3103 60.945C56.8009 57.7176 56.4348 52.2006 56.4348 49.9712C56.4348 49.6435 56.4179 49.316 56.3842 48.99C55.9025 44.1608 51.5477 40.3778 46.492 40.3778C45.5957 40.3782 44.7039 40.5036 43.8425 40.7506C43.7667 40.7818 43.6853 40.7969 43.6034 40.795C43.5214 40.793 43.4408 40.774 43.3667 40.7393C43.2925 40.7045 43.2264 40.6547 43.1725 40.593C43.1187 40.5313 43.0783 40.4591 43.054 40.381C43.0296 40.3028 43.0219 40.2205 43.0311 40.1392C43.0404 40.0579 43.0665 39.9795 43.1079 39.9088C43.1492 39.8381 43.2048 39.7769 43.2711 39.7288C43.3375 39.6808 43.4131 39.6471 43.4932 39.6299C44.4641 39.3508 45.4696 39.21 46.4799 39.2114C52.1354 39.2114 56.996 43.4586 57.5596 48.8842C57.5957 49.2473 57.615 49.6177 57.615 49.9832C57.615 52.0515 57.957 57.1741 61.122 60.0841C62.9188 61.7435 65.3925 62.4602 68.4683 62.2173C68.6245 62.2051 68.7791 62.2555 68.8981 62.3572C69.0172 62.4589 69.0908 62.6036 69.103 62.7596C69.1151 62.9155 69.0647 63.0699 68.9629 63.1887C68.861 63.3076 68.716 63.3812 68.5598 63.3933C68.1263 63.439 67.712 63.439 67.3098 63.439Z" fill="#FF4242" stroke="#FF4242" stroke-width="0.6"/>
<path d="M27.912 68.7636C27.7926 68.7623 27.6764 68.7248 27.5788 68.6562C27.4812 68.5876 27.4068 68.491 27.3653 68.3792C27.3238 68.2675 27.3172 68.1457 27.3465 68.0302C27.3757 67.9146 27.4393 67.8106 27.529 67.7319C32.9268 63.0086 34.5309 56.2651 34.9958 52.6649C35.0295 52.4244 35.1066 45.7121 37.5128 43.1508C37.8519 42.7804 38.2391 42.4569 38.6641 42.1889C38.7774 42.1135 38.914 42.0811 39.0491 42.0974C39.1842 42.1137 39.3091 42.1777 39.4012 42.2778C39.4838 42.3711 39.5294 42.4913 39.5294 42.6157C39.5294 42.7402 39.4838 42.8604 39.4012 42.9536C39.0158 43.336 38.7147 43.5813 38.4233 43.9156C36.2555 46.3999 36.2049 52.5735 36.1712 52.814C35.675 56.5801 33.9914 63.6363 28.295 68.6145C28.1892 68.7083 28.0534 68.7612 27.912 68.7636Z" fill="#FF4242" stroke="#FF4242" stroke-width="0.6"/>
<path d="M64.6035 67.8901H64.524L63.7725 67.7939C61.123 67.4693 57.0958 66.9787 54.7883 63.6502C53.3648 61.5867 53.0613 59.5906 52.7723 57.6667L52.4351 55.0212C52.4086 54.8432 52.3532 54.2612 52.3484 54.0809C52.3347 54.0105 52.337 53.938 52.355 53.8686C52.373 53.7993 52.4064 53.7348 52.4525 53.68C52.4987 53.6251 52.5566 53.5812 52.6219 53.5516C52.6872 53.5219 52.7584 53.5072 52.8301 53.5085C53.1529 53.4628 53.413 53.5806 53.4612 53.9029C53.4877 54.0809 53.5527 54.5691 53.5792 54.747L53.9453 57.4743C54.2295 59.3549 54.4969 61.1322 55.7638 62.9648C57.7702 65.8507 61.3254 66.2932 63.9195 66.6107L64.6878 66.7069C64.837 66.726 64.9732 66.8013 65.0686 66.9173C65.1641 67.0333 65.2116 67.1813 65.2015 67.3311C65.1913 67.4809 65.1243 67.6211 65.014 67.7233C64.9038 67.8254 64.7587 67.8816 64.6083 67.8805L64.6035 67.8901Z" fill="#FF4242" stroke="#FF4242" stroke-width="0.6"/>
<path d="M32.2842 72.3379C32.1725 72.3381 32.063 72.3064 31.9686 72.2467C31.8743 72.187 31.7989 72.1017 31.7514 72.0007C31.7039 71.8997 31.6861 71.7873 31.7003 71.6767C31.7145 71.566 31.7599 71.4617 31.8314 71.3759C39.6715 61.9196 40.0617 56.5037 40.4398 51.2657C40.4711 50.8207 40.5048 50.3782 40.541 49.9309C40.7818 46.9464 43.4867 44.6953 46.8299 44.6953C49.9106 44.6953 52.1915 46.6794 52.7792 49.8732C52.8077 50.0269 52.7738 50.1856 52.685 50.3144C52.5963 50.4431 52.4599 50.5314 52.3059 50.5598C52.152 50.5882 51.993 50.5543 51.8641 50.4657C51.7351 50.3771 51.6467 50.2409 51.6183 50.0872C51.1365 47.4418 49.3421 45.8737 46.8299 45.8737C44.4574 45.8737 41.938 47.2999 41.7164 50.0271C41.6803 50.4696 41.6489 50.9097 41.6176 51.3498C41.2274 56.773 40.8228 62.3814 32.7394 72.1263C32.6841 72.1932 32.6146 72.2469 32.5358 72.2835C32.457 72.3202 32.3711 72.3387 32.2842 72.3379Z" fill="#FF4242" stroke="#FF4242" stroke-width="0.6"/>
<path d="M37.1141 74.9181C37.0018 74.9159 36.8924 74.8819 36.7988 74.8198C36.7052 74.7578 36.6313 74.6703 36.5858 74.5678C36.5403 74.4652 36.525 74.3518 36.5418 74.2409C36.5586 74.13 36.6067 74.0262 36.6806 73.9417C39.754 70.4232 46.8377 61.1569 46.2814 51.1595C46.2724 51.0032 46.326 50.8498 46.4304 50.733C46.5347 50.6162 46.6812 50.5455 46.8377 50.5366C46.9943 50.5277 47.1479 50.5812 47.2649 50.6854C47.3819 50.7896 47.4526 50.9359 47.4616 51.0922C48.0421 61.5225 40.7391 71.087 37.5717 74.7161C37.5149 74.7811 37.4445 74.833 37.3654 74.8679C37.2864 74.9028 37.2006 74.9199 37.1141 74.9181Z" fill="#FF4242" stroke="#FF4242" stroke-width="0.6"/>
<path d="M58.981 72.881H58.9377C56.0473 72.667 53.5857 71.4621 51.825 69.3987C49.7512 66.9624 49.0069 63.747 49.1755 61.6403C49.1889 61.4843 49.2638 61.3401 49.3838 61.2393C49.5037 61.1385 49.6588 61.0894 49.815 61.1028C49.9712 61.1161 50.1156 61.1909 50.2166 61.3107C50.3176 61.4304 50.3667 61.5853 50.3533 61.7413C50.1919 63.6027 50.8591 66.4574 52.7138 68.6339C54.2842 70.4785 56.4038 71.5198 59.0124 71.7074C59.1629 71.7208 59.3026 71.7915 59.4026 71.9047C59.5025 72.0179 59.5551 72.1651 59.5496 72.316C59.544 72.4668 59.4807 72.6098 59.3727 72.7154C59.2646 72.8209 59.1202 72.8811 58.969 72.8834L58.981 72.881Z" fill="#FF4242" stroke="#FF4242" stroke-width="0.6"/>
<path d="M43.8205 75.9998C43.7064 75.9998 43.5948 75.9668 43.4991 75.9047C43.4034 75.8427 43.3278 75.7543 43.2814 75.6502C43.2351 75.5461 43.2199 75.4308 43.2378 75.3183C43.2556 75.2058 43.3058 75.1008 43.3822 75.0162C46.1183 71.9787 49.1628 63.7586 49.1845 61.6807C49.1955 61.5307 49.2633 61.3904 49.3742 61.2885C49.4851 61.1867 49.6308 61.1308 49.7814 61.1324C49.9321 61.1339 50.0766 61.1927 50.1854 61.2968C50.2942 61.4009 50.3591 61.5425 50.3671 61.6927C50.3406 64.2709 47.0986 72.6545 44.2589 75.805C44.2035 75.8662 44.1358 75.9152 44.0604 75.9487C43.9849 75.9823 43.9032 75.9997 43.8205 75.9998Z" fill="#FF4242" stroke="#FF4242" stroke-width="0.6"/>
<ellipse cx="2.70413" cy="48.8548" rx="1.51724" ry="1.56627" fill="#FF4242"/>
<ellipse cx="87.6696" cy="48.8548" rx="1.51723" ry="1.56627" fill="#FF4242"/>
<path d="M21.4915 83.4975C21.4761 83.4043 21.425 83.2797 21.3537 83.2169L18.5896 80.7806C18.5183 80.7177 18.3911 80.6851 18.2995 80.684L15.6379 80.9001C15.5387 80.9082 15.4269 80.9688 15.366 81.0424L13.0052 83.895C12.9443 83.9686 12.8962 84.1012 12.9116 84.1944L13.1211 86.9412C13.1289 87.0435 13.1876 87.1589 13.2589 87.2218L16.023 89.6581C16.0943 89.721 16.214 89.7628 16.3131 89.7547L18.9747 89.5385C19.0663 89.5397 19.1857 89.4699 19.2467 89.3963L21.6074 86.5437C21.6683 86.4701 21.7088 86.3467 21.701 86.2443L21.4915 83.4975ZM18.4401 87.7623C18.3791 87.8359 18.2597 87.9057 18.1681 87.9046L16.8621 88.0106C16.7719 88.0266 16.6433 87.9769 16.572 87.914L14.8422 86.3894C14.7709 86.3265 14.7122 86.2111 14.7044 86.1088L14.6016 84.7609C14.5862 84.6678 14.6343 84.5351 14.6952 84.4615L16.1726 82.6764C16.2335 82.6028 16.3453 82.5422 16.4445 82.5341L17.7505 82.428C17.8421 82.4292 17.9693 82.4618 18.0406 82.5246L19.7704 84.0493C19.8417 84.1122 19.9017 84.2446 19.9082 84.3299L20.011 85.6777C20.0188 85.7801 19.9784 85.9036 19.9174 85.9772L18.4401 87.7623Z" fill="white"/>
<path d="M5.42986 71.8553C5.36139 71.8486 5.24476 71.7925 5.15625 71.7683L3.92573 71.3061C3.83228 71.271 3.74027 71.1818 3.70066 71.094L2.24996 67.88C2.21035 67.7922 2.2444 67.6957 2.3294 67.6547L7.98191 64.9316C8.06691 64.8907 8.10096 64.7941 8.06135 64.7064L7.50682 63.4778C7.46721 63.39 7.37375 63.3549 7.28875 63.3959L0.14873 66.8356C0.0637297 66.8766 0.0296863 66.9731 0.0692956 67.0608L2.50032 72.4469C2.53498 72.5237 2.63194 72.6238 2.7254 72.6589L5.04407 73.5964C5.13258 73.6205 5.23526 73.5738 5.31904 73.4639C5.59531 73.1016 5.83296 72.0067 5.42986 71.8553Z" fill="white"/>
<path d="M38.7792 90.5615C38.6994 90.5417 38.6031 90.5925 38.5812 90.6866L37.125 96.9466C37.1031 97.0408 37.0182 97.0944 36.927 97.0718L33.5863 96.2441C33.5065 96.2243 33.3921 96.1462 33.3401 96.0586L32.6556 94.9059C32.615 94.8212 32.5854 94.6894 32.6073 94.5952L33.7925 89.5002C33.8144 89.406 33.7624 89.3185 33.6712 89.2959L32.3942 88.9795C32.3144 88.9597 32.2182 89.0105 32.1963 89.1047L30.8523 94.8822C30.8304 94.9764 30.86 95.1082 30.9006 95.1929L32.2955 97.5422C32.3475 97.6297 32.462 97.7079 32.5418 97.7276L38.14 99.1147C38.2312 99.1373 38.3161 99.0836 38.338 98.9895L40.1775 91.0821C40.1994 90.988 40.1474 90.9004 40.0562 90.8778L38.7792 90.5615Z" fill="white"/>
<path d="M57.1031 89.4101C57.0227 89.427 56.9563 89.515 56.975 89.6099L58.2187 95.9185C58.2374 96.0134 58.1824 96.099 58.0905 96.1183L57.9412 96.1497C57.8607 96.1666 57.725 96.1457 57.6535 96.0866L56.5496 95.3428C56.4781 95.2837 56.3973 95.1772 56.3786 95.0823L55.7895 92.094C55.7708 91.9991 55.7014 91.8902 55.63 91.8311L53.3921 90.3128C53.3207 90.2537 53.1849 90.2328 53.093 90.2521L50.6686 90.7611C50.5881 90.778 50.5217 90.8661 50.5404 90.9609L52.1114 98.9297C52.1301 99.0246 52.2246 99.0789 52.305 99.062L53.5919 98.7918C53.6838 98.7725 53.7387 98.6868 53.72 98.592L52.4763 92.2833C52.4576 92.1885 52.524 92.1004 52.6045 92.0836L52.7653 92.0498C52.8458 92.0329 52.9815 92.0538 53.053 92.1129L54.1569 92.8567C54.2284 92.9158 54.2977 93.0247 54.3164 93.1196L54.9055 96.1078C54.9242 96.2027 55.0051 96.3092 55.0765 96.3683L57.3144 97.8867C57.3858 97.9458 57.5216 97.9667 57.6135 97.9474L60.0265 97.4407C60.1184 97.4214 60.1733 97.3358 60.1546 97.2409L58.5836 89.2721C58.5649 89.1773 58.4819 89.1206 58.39 89.1399L57.1031 89.4101Z" fill="white"/>
<path d="M74.3699 83.1695C74.2964 83.2298 74.2852 83.3318 74.3436 83.4076L76.183 85.7941C76.2414 85.8699 76.2302 85.9719 76.1568 86.0322L73.468 88.2394C73.3946 88.2996 73.2736 88.3371 73.1748 88.3255L71.8731 88.1724C71.7835 88.1533 71.6646 88.0962 71.6062 88.0205L70.1901 86.1832C70.1317 86.1074 70.1046 85.9751 70.1067 85.8806L70.255 84.5373C70.2662 84.4353 70.3288 84.322 70.4022 84.2618L73.091 82.0546C73.1644 81.9943 73.1757 81.8923 73.1173 81.8165L72.2997 80.7558C72.2413 80.6801 72.1425 80.6684 72.0691 80.7287L68.848 83.3728C68.7746 83.4331 68.7121 83.5463 68.7008 83.6483L68.3986 86.3859C68.3965 86.4804 68.4236 86.6128 68.482 86.6885L70.7448 89.6244C70.8032 89.7002 70.9221 89.7572 71.0118 89.7763L73.6644 90.0883C73.7633 90.0999 73.8843 90.0624 73.9577 90.0022L78.4634 86.3034C78.5368 86.2431 78.5481 86.1411 78.4897 86.0654L75.6283 82.3529C75.5699 82.2772 75.471 82.2655 75.3976 82.3258L74.3699 83.1695Z" fill="white"/>
<path d="M80.4309 68.9722C80.3943 69.048 80.3787 69.1887 80.4103 69.2861L81.2574 71.899C81.2942 71.9855 81.373 72.0937 81.4569 72.1369L86.6093 74.788C86.6933 74.8312 86.7929 74.7878 86.8295 74.712L90.3454 67.4344C90.3873 67.3477 90.3557 67.2504 90.2718 67.2072L89.0965 66.6024C89.0125 66.5592 88.9182 66.5918 88.8763 66.6785L86.0929 72.4399C86.0562 72.5157 85.9567 72.5591 85.8727 72.5159L82.798 70.9339C82.7141 70.8907 82.6353 70.7825 82.5985 70.696L82.1828 69.4139C82.1513 69.3165 82.1668 69.1758 82.2035 69.1L84.4689 64.4107C84.5108 64.324 84.4792 64.2267 84.3953 64.1835L83.22 63.5787C83.136 63.5355 83.0417 63.5681 82.9998 63.6548L80.4309 68.9722ZM85.1361 70.2438C85.22 70.287 85.3196 70.2436 85.3562 70.1678L87.4072 65.9225C87.449 65.8359 87.4175 65.7385 87.3335 65.6953L86.1582 65.0906C86.0743 65.0474 85.9799 65.08 85.9381 65.1666L83.8871 69.4119C83.8505 69.4877 83.8768 69.5959 83.9608 69.6391L85.1361 70.2438Z" fill="white"/>
<path d="M4.77772 25.1625C4.69188 25.1827 4.59321 25.2766 4.54997 25.3605L1.89599 30.5118C1.85815 30.5853 1.87913 30.691 1.95755 30.734L8.545 34.3488C8.62342 34.3918 8.72008 34.3507 8.75791 34.2772L9.3633 33.1022C9.40654 33.0183 9.38016 32.923 9.30174 32.88L4.08667 30.0183C4.00825 29.9752 3.98727 29.8695 4.02511 29.7961L5.60885 26.7221C5.65209 26.6382 5.75076 26.5443 5.8366 26.5241L7.03803 26.1202C7.12928 26.0896 7.24893 26.1014 7.32735 26.1444L7.45479 26.2143C7.53321 26.2574 7.5596 26.3526 7.51635 26.4365L6.15423 29.0804C6.11639 29.1538 6.13737 29.2595 6.21579 29.3026L7.3137 29.905C7.39212 29.9481 7.48878 29.9069 7.52661 29.8335L8.88874 27.1896C8.93198 27.1057 9.02323 27.075 9.10165 27.118L10.1996 27.7205C10.278 27.7635 10.3044 27.8588 10.2611 27.9427L8.899 30.5865C8.86116 30.66 8.88214 30.7657 8.96056 30.8087L10.0585 31.4112C10.1369 31.4542 10.2335 31.4131 10.2714 31.3396L12.3902 27.227C12.4335 27.1431 12.4071 27.0478 12.3287 27.0048L7.51553 24.3636C7.43711 24.3206 7.31746 24.3088 7.22621 24.3394L4.77772 25.1625Z" fill="white"/>
<path d="M44.9332 5.19411C44.9939 5.13372 45.1274 5.07332 45.2124 5.07332H48.2468C48.3439 5.07332 48.4653 5.025 48.5382 4.95253L50.4924 3.00775C50.553 2.93528 50.6137 2.81448 50.6137 2.71785V0.169111C50.6137 0.0724765 50.5409 0 50.4438 0H42.2871C42.19 0 42.1172 0.0724765 42.1172 0.169111V1.522C42.1172 1.61863 42.19 1.69111 42.2871 1.69111H48.7445C48.8416 1.69111 48.9144 1.76358 48.9144 1.86022V2.01725C48.9144 2.11388 48.8537 2.23468 48.793 2.30715L47.8342 3.26142C47.7613 3.3339 47.6399 3.38221 47.5428 3.38221H44.4477C44.3627 3.38221 44.2292 3.44261 44.1685 3.50301L42.2264 5.67729C42.1657 5.74976 42.1172 5.88263 42.1172 5.97927V8.28642C42.1172 8.38306 42.19 8.45553 42.2871 8.45553H50.4438C50.5409 8.45553 50.6137 8.38306 50.6137 8.28642V6.93354C50.6137 6.8369 50.5409 6.76443 50.4438 6.76443H43.9864C43.8893 6.76443 43.8165 6.69195 43.8165 6.60739C43.8165 6.52284 43.865 6.38997 43.9257 6.32957L44.9332 5.19411Z" fill="white"/>
<path d="M67.7542 10.7177C67.8328 10.6998 67.9708 10.7194 68.04 10.7631L70.5123 12.3266C70.5914 12.3766 70.7136 12.3998 70.808 12.3783L73.3409 11.8008C73.4254 11.773 73.5333 11.7059 73.5801 11.6271L74.8131 9.55066C74.8598 9.47194 74.8355 9.37537 74.7564 9.32533L68.1111 5.12271C68.032 5.07268 67.9376 5.0942 67.8908 5.17293L67.2364 6.27513C67.1896 6.35386 67.2139 6.45043 67.293 6.50046L72.5539 9.82753C72.633 9.87756 72.6573 9.97413 72.6105 10.0529L72.5346 10.1808C72.4878 10.2595 72.3799 10.3267 72.2954 10.3544L71.0526 10.6378C70.9582 10.6593 70.8359 10.6362 70.7568 10.5861L68.2351 8.9914C68.1659 8.94762 68.0279 8.92803 67.9493 8.94597L65.3152 9.71673C65.2307 9.74451 65.1269 9.82774 65.0801 9.90647L63.964 11.7861C63.9172 11.8648 63.9415 11.9614 64.0206 12.0114L70.666 16.2141C70.7451 16.2641 70.8395 16.2426 70.8862 16.1638L71.5407 15.0616C71.5874 14.9829 71.5632 14.8863 71.484 14.8363L66.2232 11.5092C66.1441 11.4592 66.1198 11.3626 66.1607 11.2938C66.2016 11.2249 66.3054 11.1416 66.3841 11.1237L67.7542 10.7177Z" fill="white"/>
<path d="M19.7465 8.63675C19.6782 8.68251 19.5856 8.7998 19.5734 8.89074L18.9864 11.5063C18.9584 11.5941 18.9805 11.7173 19.0355 11.8047L22.0349 16.5712C22.0776 16.6392 22.1887 16.6614 22.257 16.6156L23.3495 15.8834C23.4276 15.8311 23.4433 15.7239 23.4006 15.6559L20.7494 11.4427C20.7066 11.3748 20.6784 11.2418 20.7003 11.1443L21.0042 9.8641C21.0163 9.77317 21.0895 9.66896 21.1675 9.61666L24.0257 7.70108C24.094 7.65532 24.1989 7.6678 24.2478 7.74546L25.7872 10.1918C25.83 10.2598 25.8045 10.3735 25.7362 10.4193L23.2779 12.0668C23.2096 12.1126 23.178 12.2166 23.2269 12.2942L23.911 13.3815C23.9538 13.4495 24.0649 13.4717 24.1331 13.4259L26.5914 11.7784C26.6597 11.7326 26.7646 11.7451 26.8135 11.8228L27.4977 12.91C27.5405 12.978 27.6417 13.0067 27.7198 12.9544L28.8124 12.2222C28.8806 12.1764 28.9062 12.0627 28.8634 11.9947L24.7583 5.47107C24.7094 5.39341 24.6045 5.38093 24.5362 5.42669L19.7465 8.63675Z" fill="white"/>
<path d="M88.5804 25.3982C88.5433 25.3231 88.4396 25.2154 88.353 25.1934L85.8856 24.3146C85.8037 24.2765 85.6823 24.2863 85.592 24.3338L80.6689 26.9226C80.5987 26.9595 80.5656 27.0715 80.6027 27.1466L81.1961 28.3485C81.2385 28.4344 81.3404 28.4618 81.4106 28.4249L85.7622 26.1367C85.8324 26.0998 85.9639 26.0847 86.0559 26.1175L87.2618 26.5647C87.3485 26.5867 87.4415 26.6729 87.4839 26.7588L89.0363 29.903C89.0734 29.9781 89.0503 30.0849 88.9701 30.1271L86.4433 31.4557C86.3732 31.4926 86.2659 31.4544 86.2288 31.3793L84.8937 28.675C84.8566 28.5999 84.7593 28.5564 84.6791 28.5986L83.5561 29.1891C83.4859 29.226 83.4528 29.3381 83.4899 29.4132L84.825 32.1174C84.8621 32.1926 84.8391 32.2993 84.7588 32.3415L83.6358 32.932C83.5657 32.9689 83.5273 33.0702 83.5696 33.156L84.163 34.3579C84.2001 34.4331 84.3074 34.4713 84.3776 34.4344L91.1156 30.8913C91.1958 30.8491 91.2189 30.7423 91.1818 30.6672L88.5804 25.3982Z" fill="white"/>
</svg>
