<svg width="836" height="1081" viewBox="0 0 836 1081" fill="none" xmlns="http://www.w3.org/2000/svg">
<g filter="url(#filter0_dd)">
<path d="M578.087 333.143L520.796 432.373C518.035 437.156 511.919 438.794 507.136 436.033L407.109 378.282C400.413 374.416 391.851 376.711 387.985 383.407L330.013 483.817C326.147 490.513 328.441 499.075 335.137 502.941L435.164 560.692C439.947 563.453 441.586 569.569 438.824 574.352L381.079 674.369C377.213 681.065 379.508 689.627 386.204 693.493L485.837 751.017C492.533 754.883 501.096 752.588 504.962 745.892L562.706 645.876C565.468 641.093 571.584 639.454 576.367 642.215L677.18 700.42C683.877 704.286 692.439 701.992 696.305 695.296L754.277 594.886C758.143 588.19 755.849 579.627 749.152 575.761L648.339 517.556C643.556 514.795 641.917 508.679 644.678 503.896L701.969 404.666C705.835 397.97 703.54 389.408 696.844 385.542L597.211 328.018C590.515 324.153 581.953 326.447 578.087 333.143Z" stroke="#FF4242" stroke-width="4"/>
</g>
<defs>
<filter id="filter0_dd" x="0.535934" y="-1.46387" width="1082.76" height="1082.42" filterUnits="userSpaceOnUse" color-interpolation-filters="sRGB">
<feFlood flood-opacity="0" result="BackgroundImageFix"/>
<feColorMatrix in="SourceAlpha" type="matrix" values="0 0 0 0 0 0 0 0 0 0 0 0 0 0 0 0 0 0 127 0"/>
<feOffset/>
<feGaussianBlur stdDeviation="15"/>
<feColorMatrix type="matrix" values="0 0 0 0 1 0 0 0 0 0.258824 0 0 0 0 0.258824 0 0 0 1 0"/>
<feBlend mode="normal" in2="BackgroundImageFix" result="effect1_dropShadow"/>
<feColorMatrix in="SourceAlpha" type="matrix" values="0 0 0 0 0 0 0 0 0 0 0 0 0 0 0 0 0 0 127 0"/>
<feOffset/>
<feGaussianBlur stdDeviation="125"/>
<feColorMatrix type="matrix" values="0 0 0 0 1 0 0 0 0 0.258824 0 0 0 0 0.258824 0 0 0 0.8 0"/>
<feBlend mode="normal" in2="effect1_dropShadow" result="effect2_dropShadow"/>
<feBlend mode="normal" in="SourceGraphic" in2="effect2_dropShadow" result="shape"/>
</filter>
</defs>
</svg>
