<svg width="110" height="115" viewBox="0 0 110 115" fill="none" xmlns="http://www.w3.org/2000/svg">
<path d="M51.2305 7.40881C52.9225 4.53604 57.0775 4.53604 58.7695 7.40881C60.4665 10.2901 64.3546 10.9389 66.8952 8.76475C69.4283 6.59702 73.3582 7.94615 74.0257 11.2127C74.6952 14.4889 78.1619 16.365 81.2709 15.1335C84.3706 13.9058 87.6495 16.4578 87.2202 19.7641C86.7896 23.0802 89.4593 25.9803 92.7997 25.825C96.1301 25.6702 98.4026 29.1487 96.9231 32.1364C95.4391 35.133 97.0225 38.7428 100.232 39.6806C103.433 40.6156 104.452 44.6435 102.083 46.9889C99.7064 49.3413 100.032 53.2697 102.763 55.1988C105.487 57.1222 105.143 61.2631 102.141 62.712C99.1291 64.1653 98.1614 67.9865 100.118 70.698C102.07 73.4015 100.4 77.2065 97.09 77.602C93.7697 77.9987 91.6137 81.2987 92.5842 84.4986C93.5518 87.6892 90.7377 90.7461 87.4782 90.0452C84.209 89.3423 81.0984 91.7634 80.9772 95.1052C80.8565 98.437 77.2022 100.415 74.3469 98.6933C71.4831 96.967 67.7548 98.2469 66.5552 101.368C65.3591 104.48 61.2608 105.164 59.119 102.609C56.9709 100.046 53.0291 100.046 50.881 102.609C48.7392 105.164 44.6409 104.48 43.4448 101.368C42.2452 98.2469 38.5169 96.967 35.6531 98.6933C32.7978 100.415 29.1435 98.437 29.0228 95.1052C28.9017 91.7634 25.791 89.3423 22.5218 90.0452C19.2623 90.7461 16.4482 87.6892 17.4158 84.4986C18.3863 81.2986 16.2303 77.9987 12.91 77.602C9.59951 77.2065 7.93046 73.4015 9.88161 70.698C11.8386 67.9865 10.8709 64.1653 7.85928 62.712C4.8566 61.2631 4.51348 57.1222 7.23672 55.1988C9.96806 53.2697 10.2936 49.3413 7.91701 46.9889C5.5475 44.6435 6.5675 40.6156 9.76772 39.6806C12.9775 38.7428 14.5609 35.133 13.0769 32.1364C11.5974 29.1487 13.8699 25.6702 17.2003 25.825C20.5407 25.9803 23.2104 23.0802 22.7798 19.7641C22.3505 16.4578 25.6294 13.9058 28.7291 15.1335C31.8381 16.365 35.3048 14.4889 35.9743 11.2127C36.6418 7.94615 40.5717 6.59702 43.1048 8.76475C45.6454 10.9389 49.5335 10.2901 51.2305 7.40881Z" fill="#1B181F" stroke="#5D5666"/>
<g clip-path="url(#clip0)">
<path d="M52.4005 61.6103C52.4005 63.6845 50.8074 65.2129 48.8522 65.2129C46.8971 65.2129 45.304 63.6845 45.304 61.6103C45.304 59.5216 46.8971 58.0078 48.8522 58.0078C50.8074 58.0078 52.4005 59.5216 52.4005 61.6103ZM50.8472 61.6103C50.8472 60.3142 49.9239 59.4274 48.8522 59.4274C47.7806 59.4274 46.8573 60.3142 46.8573 61.6103C46.8573 62.8935 47.7806 63.7933 48.8522 63.7933C49.9239 63.7933 50.8472 62.8918 50.8472 61.6103Z" fill="#EA4335"/>
<path d="M60.0574 61.6103C60.0574 63.6845 58.4643 65.2129 56.5092 65.2129C54.5541 65.2129 52.9609 63.6845 52.9609 61.6103C52.9609 59.5232 54.5541 58.0078 56.5092 58.0078C58.4643 58.0078 60.0574 59.5216 60.0574 61.6103ZM58.5042 61.6103C58.5042 60.3142 57.5808 59.4274 56.5092 59.4274C55.4375 59.4274 54.5142 60.3142 54.5142 61.6103C54.5142 62.8935 55.4375 63.7933 56.5092 63.7933C57.5808 63.7933 58.5042 62.8918 58.5042 61.6103Z" fill="#FBBC05"/>
<path d="M67.3905 58.2255V64.6931C67.3905 67.3536 65.85 68.4402 64.0289 68.4402C62.3145 68.4402 61.2828 67.2724 60.8936 66.3173L62.246 65.744C62.4868 66.3303 63.0768 67.0222 64.0273 67.0222C65.193 67.0222 65.9154 66.2897 65.9154 64.9107V64.3926H65.8612C65.5136 64.8295 64.8438 65.2112 63.9986 65.2112C62.23 65.2112 60.6098 63.6422 60.6098 61.6233C60.6098 59.5898 62.23 58.0078 63.9986 58.0078C64.8422 58.0078 65.512 58.3895 65.8612 58.8134H65.9154V58.2271H67.3905V58.2255ZM66.0255 61.6233C66.0255 60.3548 65.1946 59.4274 64.1373 59.4274C63.0657 59.4274 62.1678 60.3548 62.1678 61.6233C62.1678 62.8788 63.0657 63.7933 64.1373 63.7933C65.1946 63.7933 66.0255 62.8788 66.0255 61.6233Z" fill="#4285F4"/>
<path d="M69.8236 54.4341V64.9915H68.3086V54.4341H69.8236Z" fill="#34A853"/>
<path d="M75.7274 62.7962L76.933 63.6148C76.5439 64.2011 75.6062 65.2114 73.9859 65.2114C71.9766 65.2114 70.476 63.6294 70.476 61.6089C70.476 59.4665 71.9894 58.0063 73.8121 58.0063C75.6476 58.0063 76.5455 59.4941 76.8389 60.2981L77 60.7074L72.2716 62.702C72.6336 63.4247 73.1966 63.7934 73.9859 63.7934C74.7769 63.7934 75.3255 63.3971 75.7274 62.7962ZM72.0165 61.5L75.1772 60.1633C75.0034 59.7134 74.4803 59.3999 73.8647 59.3999C73.0754 59.3999 71.9766 60.1097 72.0165 61.5Z" fill="#EA4335"/>
<path d="M39.5704 60.673V59.1446H44.6272C44.6767 59.411 44.7022 59.7261 44.7022 60.0672C44.7022 61.2139 44.3944 62.6318 43.4025 63.6421C42.4377 64.6653 41.2049 65.2111 39.572 65.2111C36.5452 65.2111 34 62.7 34 59.6173C34 56.5345 36.5452 54.0234 39.572 54.0234C41.2464 54.0234 42.4393 54.6926 43.3355 55.5648L42.2766 56.6433C41.6339 56.0293 40.7632 55.5518 39.5704 55.5518C37.3601 55.5518 35.6314 57.3661 35.6314 59.6173C35.6314 61.8684 37.3601 63.6827 39.5704 63.6827C41.004 63.6827 41.8205 63.0963 42.3436 62.5636C42.7678 62.1315 43.0468 61.5143 43.1569 60.6714L39.5704 60.673Z" fill="#4285F4"/>
</g>
<g filter="url(#filter0_d)">
<path d="M39.701 83.523L37.5848 83.2297L36.6363 81.3961C36.5655 81.2592 36.318 81.2592 36.2471 81.3961L35.2989 83.2297L33.1827 83.523C33.0089 83.5472 32.9395 83.7391 33.0614 83.8523L34.5988 85.2824L34.2354 87.3041C34.2064 87.4647 34.3954 87.5852 34.5517 87.5064L36.4419 86.5584L38.332 87.5066C38.4869 87.5847 38.6776 87.4665 38.6484 87.3044L38.285 85.2826L39.8223 83.8526C39.9442 83.7391 39.8745 83.5472 39.701 83.523Z" fill="#FFA552"/>
</g>
<g filter="url(#filter1_d)">
<path d="M49.4511 83.523L47.3349 83.2297L46.3864 81.3961C46.3155 81.2592 46.068 81.2592 45.9972 81.3961L45.0489 83.2297L42.9327 83.523C42.7589 83.5472 42.6895 83.7391 42.8114 83.8523L44.3488 85.2824L43.9854 87.3041C43.9564 87.4647 44.1454 87.5852 44.3018 87.5064L46.1919 86.5584L48.0821 87.5066C48.237 87.5847 48.4277 87.4665 48.3985 87.3044L48.0351 85.2826L49.5724 83.8526C49.6943 83.7391 49.6246 83.5472 49.4511 83.523Z" fill="#FFA552"/>
</g>
<g filter="url(#filter2_d)">
<path d="M59.2054 83.523L57.0892 83.2297L56.1407 81.3961C56.0699 81.2592 55.8224 81.2592 55.7515 81.3961L54.8033 83.2297L52.6871 83.523C52.5133 83.5472 52.4439 83.7391 52.5658 83.8523L54.1032 85.2824L53.7398 87.3041C53.7108 87.4647 53.8998 87.5852 54.0561 87.5064L55.9463 86.5584L57.8364 87.5066C57.9913 87.5847 58.182 87.4665 58.1528 87.3044L57.7894 85.2826L59.3267 83.8526C59.4486 83.7391 59.3789 83.5472 59.2054 83.523Z" fill="#FFA552"/>
</g>
<g filter="url(#filter3_d)">
<path d="M68.9589 83.523L66.8427 83.2297L65.8942 81.3961C65.8234 81.2592 65.5758 81.2592 65.505 81.3961L64.5567 83.2297L62.4406 83.523C62.2667 83.5472 62.1973 83.7391 62.3192 83.8523L63.8566 85.2824L63.4932 87.3041C63.4642 87.4647 63.6533 87.5853 63.8096 87.5064L65.6997 86.5584L67.5899 87.5066C67.7448 87.5847 67.9355 87.4666 67.9063 87.3044L67.5429 85.2827L69.0802 83.8526C69.2021 83.7391 69.1324 83.5472 68.9589 83.523Z" fill="#FFA552"/>
</g>
<g filter="url(#filter4_d)">
<path d="M78.8173 83.523L76.7011 83.2297L75.7526 81.3961C75.6818 81.2592 75.4342 81.2592 75.3634 81.3961L74.4151 83.2297L72.299 83.523C72.1251 83.5472 72.0557 83.7391 72.1776 83.8523L73.715 85.2824L73.3516 87.3041C73.3226 87.4647 73.5117 87.5853 73.668 87.5064L75.5581 86.5584L77.4483 87.5066C77.6032 87.5847 77.7939 87.4666 77.7647 87.3044L77.4013 85.2827L78.9386 83.8526C79.0605 83.7391 78.9908 83.5472 78.8173 83.523Z" fill="#FFA552"/>
</g>
<path d="M53.6666 42.8434H51.1866V46.0234H48.6666V42.8434H40.9866V41.0434L47.8866 32.0234H50.6666L44.1666 40.6434H48.7466V37.8234H51.1866V40.6434H53.6666V42.8434ZM56.7315 42.8434C57.1982 42.8434 57.5848 42.9968 57.8915 43.3034C58.1982 43.6101 58.3515 44.0101 58.3515 44.5034C58.3515 44.7168 58.3182 44.9434 58.2515 45.1834C58.1982 45.4101 58.0782 45.7568 57.8915 46.2234L56.8715 49.0434H55.2515L56.0515 45.9834C55.7582 45.8634 55.5248 45.6768 55.3515 45.4234C55.1915 45.1568 55.1115 44.8501 55.1115 44.5034C55.1115 44.0101 55.2648 43.6101 55.5715 43.3034C55.8782 42.9968 56.2648 42.8434 56.7315 42.8434ZM64.7543 31.8234C66.6743 31.8234 68.161 32.4234 69.2143 33.6234C70.281 34.8234 70.8143 36.5434 70.8143 38.7834C70.8143 40.3568 70.5276 41.7034 69.9543 42.8234C69.381 43.9301 68.5743 44.7768 67.5343 45.3634C66.5076 45.9368 65.3143 46.2234 63.9543 46.2234C63.2343 46.2234 62.5543 46.1501 61.9143 46.0034C61.2876 45.8434 60.741 45.6168 60.2743 45.3234L61.2343 43.3634C61.9276 43.8168 62.8143 44.0434 63.8943 44.0434C65.241 44.0434 66.2943 43.6301 67.0543 42.8034C67.8143 41.9768 68.1943 40.7834 68.1943 39.2234V39.2034C67.781 39.6834 67.2543 40.0501 66.6143 40.3034C65.9743 40.5434 65.2543 40.6634 64.4543 40.6634C63.5343 40.6634 62.7076 40.4901 61.9743 40.1434C61.241 39.7834 60.6676 39.2768 60.2543 38.6234C59.841 37.9701 59.6343 37.2168 59.6343 36.3634C59.6343 35.4568 59.861 34.6634 60.3143 33.9834C60.7676 33.2901 61.381 32.7568 62.1543 32.3834C62.9276 32.0101 63.7943 31.8234 64.7543 31.8234ZM64.9543 38.6234C65.7943 38.6234 66.4743 38.3968 66.9943 37.9434C67.5276 37.4901 67.7943 36.9168 67.7943 36.2234C67.7943 35.5434 67.5343 34.9834 67.0143 34.5434C66.5076 34.0901 65.801 33.8634 64.8943 33.8634C64.081 33.8634 63.421 34.0834 62.9143 34.5234C62.4076 34.9501 62.1543 35.5234 62.1543 36.2434C62.1543 36.9768 62.4076 37.5568 62.9143 37.9834C63.421 38.4101 64.101 38.6234 64.9543 38.6234Z" fill="white"/>
<defs>
<filter id="filter0_d" x="10" y="62.2935" width="52.8837" height="52.2378" filterUnits="userSpaceOnUse" color-interpolation-filters="sRGB">
<feFlood flood-opacity="0" result="BackgroundImageFix"/>
<feColorMatrix in="SourceAlpha" type="matrix" values="0 0 0 0 0 0 0 0 0 0 0 0 0 0 0 0 0 0 127 0"/>
<feOffset dy="4"/>
<feGaussianBlur stdDeviation="11.5"/>
<feColorMatrix type="matrix" values="0 0 0 0 1 0 0 0 0 0.566667 0 0 0 0 0.166667 0 0 0 1 0"/>
<feBlend mode="normal" in2="BackgroundImageFix" result="effect1_dropShadow"/>
<feBlend mode="normal" in="SourceGraphic" in2="effect1_dropShadow" result="shape"/>
</filter>
<filter id="filter1_d" x="19.75" y="62.2935" width="52.8838" height="52.2378" filterUnits="userSpaceOnUse" color-interpolation-filters="sRGB">
<feFlood flood-opacity="0" result="BackgroundImageFix"/>
<feColorMatrix in="SourceAlpha" type="matrix" values="0 0 0 0 0 0 0 0 0 0 0 0 0 0 0 0 0 0 127 0"/>
<feOffset dy="4"/>
<feGaussianBlur stdDeviation="11.5"/>
<feColorMatrix type="matrix" values="0 0 0 0 1 0 0 0 0 0.566667 0 0 0 0 0.166667 0 0 0 1 0"/>
<feBlend mode="normal" in2="BackgroundImageFix" result="effect1_dropShadow"/>
<feBlend mode="normal" in="SourceGraphic" in2="effect1_dropShadow" result="shape"/>
</filter>
<filter id="filter2_d" x="29.5044" y="62.2935" width="52.8837" height="52.2378" filterUnits="userSpaceOnUse" color-interpolation-filters="sRGB">
<feFlood flood-opacity="0" result="BackgroundImageFix"/>
<feColorMatrix in="SourceAlpha" type="matrix" values="0 0 0 0 0 0 0 0 0 0 0 0 0 0 0 0 0 0 127 0"/>
<feOffset dy="4"/>
<feGaussianBlur stdDeviation="11.5"/>
<feColorMatrix type="matrix" values="0 0 0 0 1 0 0 0 0 0.566667 0 0 0 0 0.166667 0 0 0 1 0"/>
<feBlend mode="normal" in2="BackgroundImageFix" result="effect1_dropShadow"/>
<feBlend mode="normal" in="SourceGraphic" in2="effect1_dropShadow" result="shape"/>
</filter>
<filter id="filter3_d" x="39.2578" y="62.2935" width="52.8838" height="52.2379" filterUnits="userSpaceOnUse" color-interpolation-filters="sRGB">
<feFlood flood-opacity="0" result="BackgroundImageFix"/>
<feColorMatrix in="SourceAlpha" type="matrix" values="0 0 0 0 0 0 0 0 0 0 0 0 0 0 0 0 0 0 127 0"/>
<feOffset dy="4"/>
<feGaussianBlur stdDeviation="11.5"/>
<feColorMatrix type="matrix" values="0 0 0 0 1 0 0 0 0 0.566667 0 0 0 0 0.166667 0 0 0 1 0"/>
<feBlend mode="normal" in2="BackgroundImageFix" result="effect1_dropShadow"/>
<feBlend mode="normal" in="SourceGraphic" in2="effect1_dropShadow" result="shape"/>
</filter>
<filter id="filter4_d" x="49.1162" y="62.2935" width="52.8838" height="52.2379" filterUnits="userSpaceOnUse" color-interpolation-filters="sRGB">
<feFlood flood-opacity="0" result="BackgroundImageFix"/>
<feColorMatrix in="SourceAlpha" type="matrix" values="0 0 0 0 0 0 0 0 0 0 0 0 0 0 0 0 0 0 127 0"/>
<feOffset dy="4"/>
<feGaussianBlur stdDeviation="11.5"/>
<feColorMatrix type="matrix" values="0 0 0 0 1 0 0 0 0 0.566667 0 0 0 0 0.166667 0 0 0 1 0"/>
<feBlend mode="normal" in2="BackgroundImageFix" result="effect1_dropShadow"/>
<feBlend mode="normal" in="SourceGraphic" in2="effect1_dropShadow" result="shape"/>
</filter>
<clipPath id="clip0">
<rect width="43" height="15" fill="white" transform="translate(34 54.0234)"/>
</clipPath>
</defs>
</svg>
