<svg width="110" height="111" viewBox="0 0 110 111" fill="none" xmlns="http://www.w3.org/2000/svg">
<path d="M51.2305 7.40881C52.9225 4.53604 57.0775 4.53604 58.7695 7.40881C60.4665 10.2901 64.3546 10.9389 66.8952 8.76475C69.4283 6.59702 73.3582 7.94615 74.0257 11.2127C74.6952 14.4889 78.1619 16.365 81.2709 15.1335C84.3706 13.9058 87.6495 16.4578 87.2202 19.7641C86.7896 23.0802 89.4593 25.9803 92.7997 25.825C96.1301 25.6702 98.4026 29.1487 96.9231 32.1364C95.4391 35.133 97.0225 38.7428 100.232 39.6806C103.433 40.6156 104.452 44.6435 102.083 46.9889C99.7064 49.3413 100.032 53.2697 102.763 55.1988C105.487 57.1222 105.143 61.2631 102.141 62.712C99.1291 64.1653 98.1614 67.9865 100.118 70.698C102.07 73.4015 100.4 77.2065 97.09 77.602C93.7697 77.9987 91.6137 81.2987 92.5842 84.4986C93.5518 87.6892 90.7377 90.7461 87.4782 90.0452C84.209 89.3423 81.0984 91.7634 80.9772 95.1052C80.8565 98.437 77.2022 100.415 74.3469 98.6933C71.4831 96.967 67.7548 98.2469 66.5552 101.368C65.3591 104.48 61.2608 105.164 59.119 102.609C56.9709 100.046 53.0291 100.046 50.881 102.609C48.7392 105.164 44.6409 104.48 43.4448 101.368C42.2452 98.2469 38.5169 96.967 35.6531 98.6933C32.7978 100.415 29.1435 98.437 29.0228 95.1052C28.9017 91.7634 25.791 89.3423 22.5218 90.0452C19.2623 90.7461 16.4482 87.6892 17.4158 84.4986C18.3863 81.2986 16.2303 77.9987 12.91 77.602C9.59951 77.2065 7.93046 73.4015 9.88161 70.698C11.8386 67.9865 10.8709 64.1653 7.85928 62.712C4.8566 61.2631 4.51348 57.1222 7.23672 55.1988C9.96806 53.2697 10.2936 49.3413 7.91701 46.9889C5.5475 44.6435 6.5675 40.6156 9.76772 39.6806C12.9775 38.7428 14.5609 35.133 13.0769 32.1364C11.5974 29.1487 13.8699 25.6702 17.2003 25.825C20.5407 25.9803 23.2104 23.0802 22.7798 19.7641C22.3505 16.4578 25.6294 13.9058 28.7291 15.1335C31.8381 16.365 35.3048 14.4889 35.9743 11.2127C36.6418 7.94615 40.5717 6.59702 43.1048 8.76475C45.6454 10.9389 49.5335 10.2901 51.2305 7.40881Z" stroke="#5D5666"/>
<path d="M47.3674 36.4434C49.3408 36.4434 50.8008 36.8301 51.7474 37.6034C52.6941 38.3634 53.1674 39.4034 53.1674 40.7234C53.1674 41.5634 52.9608 42.3234 52.5474 43.0034C52.1341 43.6834 51.5141 44.2234 50.6874 44.6234C49.8608 45.0234 48.8408 45.2234 47.6274 45.2234C46.6274 45.2234 45.6608 45.0834 44.7274 44.8034C43.7941 44.5101 43.0074 44.1101 42.3674 43.6034L43.4674 41.5834C43.9874 42.0101 44.6074 42.3501 45.3274 42.6034C46.0608 42.8434 46.8141 42.9634 47.5874 42.9634C48.5074 42.9634 49.2274 42.7768 49.7474 42.4034C50.2808 42.0168 50.5474 41.4901 50.5474 40.8234C50.5474 40.1034 50.2608 39.5634 49.6874 39.2034C49.1274 38.8301 48.1608 38.6434 46.7874 38.6434H43.4074L44.1274 31.0234H52.3474V33.2034H46.3274L46.0274 36.4434H47.3674ZM56.2471 41.8434C56.7138 41.8434 57.1004 41.9968 57.4071 42.3034C57.7138 42.6101 57.8671 43.0101 57.8671 43.5034C57.8671 43.7168 57.8338 43.9434 57.7671 44.1834C57.7138 44.4101 57.5938 44.7568 57.4071 45.2234L56.3871 48.0434H54.7671L55.5671 44.9834C55.2738 44.8634 55.0404 44.6768 54.8671 44.4234C54.7071 44.1568 54.6271 43.8501 54.6271 43.5034C54.6271 43.0101 54.7804 42.6101 55.0871 42.3034C55.3938 41.9968 55.7804 41.8434 56.2471 41.8434ZM65.1555 45.2234C64.0355 45.2234 63.0355 44.9434 62.1555 44.3834C61.2755 43.8101 60.5822 42.9834 60.0755 41.9034C59.5689 40.8101 59.3155 39.5168 59.3155 38.0234C59.3155 36.5301 59.5689 35.2434 60.0755 34.1634C60.5822 33.0701 61.2755 32.2434 62.1555 31.6834C63.0355 31.1101 64.0355 30.8234 65.1555 30.8234C66.2755 30.8234 67.2755 31.1101 68.1555 31.6834C69.0489 32.2434 69.7489 33.0701 70.2555 34.1634C70.7622 35.2434 71.0155 36.5301 71.0155 38.0234C71.0155 39.5168 70.7622 40.8101 70.2555 41.9034C69.7489 42.9834 69.0489 43.8101 68.1555 44.3834C67.2755 44.9434 66.2755 45.2234 65.1555 45.2234ZM65.1555 42.9634C66.1555 42.9634 66.9422 42.5501 67.5155 41.7234C68.1022 40.8968 68.3955 39.6634 68.3955 38.0234C68.3955 36.3834 68.1022 35.1501 67.5155 34.3234C66.9422 33.4968 66.1555 33.0834 65.1555 33.0834C64.1689 33.0834 63.3822 33.4968 62.7955 34.3234C62.2222 35.1501 61.9355 36.3834 61.9355 38.0234C61.9355 39.6634 62.2222 40.8968 62.7955 41.7234C63.3822 42.5501 64.1689 42.9634 65.1555 42.9634Z" fill="white"/>
<g filter="url(#filter0_d)">
<path d="M40.0666 83.7249L37.835 83.405L36.8347 81.4054C36.76 81.2561 36.499 81.2561 36.4243 81.4054L35.4243 83.405L33.1927 83.7249C33.0094 83.7513 32.9362 83.9605 33.0648 84.084L34.686 85.6436L34.3028 87.8484C34.2722 88.0236 34.4716 88.155 34.6364 88.069L36.6297 87.0351L38.6229 88.0693C38.7863 88.1544 38.9874 88.0255 38.9566 87.8487L38.5733 85.6439L40.1946 84.0843C40.3231 83.9605 40.2496 83.7513 40.0666 83.7249Z" fill="#FFAF52"/>
</g>
<g filter="url(#filter1_d)">
<path d="M50.3519 83.7249L48.1203 83.405L47.12 81.4054C47.0453 81.2561 46.7842 81.2561 46.7095 81.4054L45.7095 83.405L43.4779 83.7249C43.2946 83.7513 43.2214 83.9605 43.3499 84.084L44.9712 85.6436L44.588 87.8484C44.5574 88.0236 44.7567 88.155 44.9216 88.069L46.9149 87.0351L48.9082 88.0693C49.0715 88.1544 49.2727 88.0255 49.2418 87.8487L48.8586 85.6439L50.4799 84.0843C50.6084 83.9605 50.5349 83.7513 50.3519 83.7249Z" fill="#FFAF52"/>
</g>
<g filter="url(#filter2_d)">
<path d="M60.6371 83.7249L58.4054 83.405L57.4051 81.4054C57.3304 81.2561 57.0694 81.2561 56.9947 81.4054L55.9947 83.405L53.763 83.7249C53.5797 83.7513 53.5065 83.9605 53.6351 84.084L55.2563 85.6436L54.8731 87.8484C54.8426 88.0236 55.0419 88.155 55.2067 88.069L57.2 87.0351L59.1934 88.0693C59.3567 88.1544 59.5578 88.0255 59.527 87.8487L59.1437 85.6439L60.765 84.0843C60.8936 83.9605 60.8201 83.7513 60.6371 83.7249Z" fill="#FFAF52"/>
</g>
<g filter="url(#filter3_d)">
<path d="M70.919 83.7249L68.6874 83.405L67.6871 81.4054C67.6124 81.2561 67.3514 81.2561 67.2766 81.4054L66.2767 83.405L64.045 83.7249C63.8617 83.7513 63.7885 83.9605 63.9171 84.084L65.5383 85.6436L65.1551 87.8484C65.1245 88.0236 65.3239 88.155 65.4887 88.069L67.482 87.0351L69.4753 88.0693C69.6387 88.1544 69.8398 88.0255 69.809 87.8487L69.4257 85.6439L71.047 84.0843C71.1755 83.9605 71.102 83.7513 70.919 83.7249Z" fill="#FFAF52"/>
</g>
<g filter="url(#filter4_d)">
<path d="M81.2037 83.7249L78.9721 83.405L77.9718 81.4054C77.8971 81.2561 77.636 81.2561 77.5613 81.4054L76.5613 83.405L74.3297 83.7249C74.1464 83.7513 74.0732 83.9605 74.2017 84.084L75.823 85.6436L75.4398 87.8484C75.4092 88.0236 75.6085 88.155 75.7734 88.069L77.7667 87.0351L79.76 88.0693C79.9233 88.1544 80.1245 88.0255 80.0936 87.8487L79.7104 85.6439L81.3317 84.0843C81.4602 83.9605 81.3867 83.7513 81.2037 83.7249Z" fill="#FFAF52"/>
</g>
<g clip-path="url(#clip0)">
<path d="M39.5019 59.931H38.665C37.35 59.931 36.0747 59.1185 36.0747 57.0867C36.0747 54.9706 37.2704 54.1071 38.4856 54.1071H39.5019V59.931ZM40.817 53.0235H38.5456C36.3135 53.0235 34.4211 54.4628 34.4211 57.2562C34.4211 58.9323 35.3376 60.1682 36.9716 60.7774L33.9228 65.4502C33.823 65.6026 33.9228 65.7212 34.082 65.7212H35.4968C35.6162 65.7212 35.6963 65.6874 35.7361 65.6026L38.5058 61.0146H39.5019V65.6026C39.5019 65.6536 39.5619 65.7212 39.6415 65.7212H40.8769C40.9963 65.7212 41.0361 65.6702 41.0361 65.5859V53.1926C41.0361 53.0745 40.9565 53.0235 40.817 53.0235Z" fill="#ED1E24"/>
<path d="M48.3063 57.2323H47.0709C46.9711 57.2323 46.9117 57.2999 46.9117 57.3509V60.5843H44.6202V57.3509C44.6202 57.2661 44.5804 57.2323 44.4806 57.2323H43.2451C43.1459 57.2323 43.0859 57.2832 43.0859 57.3509V65.5791C43.0859 65.6634 43.1257 65.7144 43.225 65.7144H44.4806C44.5602 65.7144 44.6202 65.6634 44.6202 65.5791V61.6512H46.9117V65.5791C46.9117 65.6634 46.9711 65.7144 47.0709 65.7144H48.3063C48.4061 65.7144 48.4459 65.6463 48.4459 65.5791V57.3509C48.4459 57.2832 48.3859 57.2323 48.3063 57.2323Z" fill="white"/>
<path d="M76.5132 65.1726L76.354 64.5972C76.3339 64.5463 76.3142 64.5291 76.2543 64.5291C76.1545 64.5291 75.6169 64.7153 74.8394 64.7153C73.3254 64.7153 72.5877 63.4794 72.5877 61.5157C72.5877 59.7887 73.2054 58.0788 74.2419 58.0788C74.5205 58.0788 74.8596 58.1465 75.3972 58.5699C75.4572 58.6208 75.497 58.6375 75.5569 58.6375C75.6169 58.6375 75.6763 58.6037 75.7363 58.5189L76.2744 57.774C76.3142 57.7235 76.3339 57.6726 76.3339 57.6216C76.3339 57.554 76.2543 57.5035 76.1349 57.4525C75.3176 57.0968 74.7598 57.0291 74.2817 57.0291C72.4089 57.0291 70.9543 58.9252 70.9543 61.8881C70.9543 64.4443 72.3489 65.9175 74.3417 65.9175C75.1786 65.9175 76.0749 65.5788 76.4336 65.3588C76.5132 65.3078 76.5334 65.2402 76.5132 65.1726Z" fill="white"/>
<path d="M67.8535 61.0587L70.2448 57.3509C70.2846 57.3004 70.2644 57.2323 70.1848 57.2323H69.0094C68.6702 57.2323 68.5508 57.3342 68.4314 57.5542L66.6382 60.7201C66.5385 60.9063 66.4387 61.0249 66.3389 61.0758V57.3509C66.3389 57.2832 66.2991 57.2323 66.2195 57.2323H64.9241C64.8647 57.2323 64.8047 57.2832 64.8047 57.3509V65.5958C64.8047 65.6467 64.8445 65.7144 64.9241 65.7144H66.2195C66.2991 65.7144 66.3389 65.6634 66.3389 65.5958V61.3464C66.3989 61.3802 66.4387 61.4312 66.4785 61.4988L68.7498 65.4605C68.8698 65.6634 69.0492 65.7144 69.3081 65.7144H70.5834C70.663 65.7144 70.6832 65.6467 70.6428 65.5958L67.8535 61.0587Z" fill="white"/>
<path d="M54.2813 64.6478H51.3922C52.4085 63.1751 52.807 61.5158 52.9466 59.4839C52.9864 59.0439 53.006 58.5871 53.006 58.2989H54.2813V64.6478ZM56.4332 64.6478H56.1944C55.8951 64.6478 55.8155 64.5463 55.8155 64.343V57.3511C55.8155 57.2664 55.7757 57.2326 55.6961 57.2326H51.7112C51.6114 57.2326 51.5514 57.283 51.5514 57.3511V57.9603C51.5514 60.0088 51.4124 62.6502 50.1372 64.6478H49.6983C49.5789 64.6478 49.5391 64.6987 49.5391 64.783V67.2549C49.5391 67.3397 49.6187 67.3735 49.6786 67.3735H50.6349C50.8541 67.3735 50.9337 67.2383 50.9337 67.1197V65.7142H55.1978V67.2549C55.1978 67.3226 55.2578 67.3735 55.3374 67.3735H56.3536C56.473 67.3735 56.593 67.2888 56.593 67.1197V64.783C56.593 64.6987 56.533 64.6478 56.4332 64.6478Z" fill="white"/>
<path d="M60.2797 60.7032C59.8217 60.7032 59.1042 60.7708 59.1042 60.7708C59.1042 60.7708 59.1042 60.5169 59.144 60.2459C59.3234 58.8071 59.7416 58.0788 60.4394 58.0788C61.0768 58.0788 61.4753 58.8238 61.5751 60.1278C61.5947 60.3983 61.5947 60.7032 61.5947 60.7032H60.2797ZM60.4989 57.0296C58.3469 57.0296 57.3906 59.3319 57.3906 61.8376C57.3906 64.3939 58.7455 65.9175 60.7382 65.9175C61.7141 65.9175 62.5712 65.596 63.0096 65.3588C63.0892 65.325 63.1093 65.2745 63.0892 65.2064L62.93 64.631C62.9098 64.5634 62.87 64.5296 62.7702 64.5296C62.6906 64.5296 62.1127 64.7158 61.296 64.7158C59.7617 64.7158 59.0442 63.5813 59.0442 62.0915V61.6908C59.0442 61.6908 59.8217 61.77 60.2797 61.77H63.1889V61.0589C63.1889 58.4346 62.0931 57.0296 60.4989 57.0296Z" fill="white"/>
</g>
<defs>
<filter id="filter0_d" x="17" y="69.2935" width="39.2593" height="38.8027" filterUnits="userSpaceOnUse" color-interpolation-filters="sRGB">
<feFlood flood-opacity="0" result="BackgroundImageFix"/>
<feColorMatrix in="SourceAlpha" type="matrix" values="0 0 0 0 0 0 0 0 0 0 0 0 0 0 0 0 0 0 127 0"/>
<feOffset dy="4"/>
<feGaussianBlur stdDeviation="8"/>
<feColorMatrix type="matrix" values="0 0 0 0 1 0 0 0 0 0.566667 0 0 0 0 0.166667 0 0 0 0.22 0"/>
<feBlend mode="normal" in2="BackgroundImageFix" result="effect1_dropShadow"/>
<feBlend mode="normal" in="SourceGraphic" in2="effect1_dropShadow" result="shape"/>
</filter>
<filter id="filter1_d" x="27.2852" y="69.2935" width="39.2594" height="38.8027" filterUnits="userSpaceOnUse" color-interpolation-filters="sRGB">
<feFlood flood-opacity="0" result="BackgroundImageFix"/>
<feColorMatrix in="SourceAlpha" type="matrix" values="0 0 0 0 0 0 0 0 0 0 0 0 0 0 0 0 0 0 127 0"/>
<feOffset dy="4"/>
<feGaussianBlur stdDeviation="8"/>
<feColorMatrix type="matrix" values="0 0 0 0 1 0 0 0 0 0.566667 0 0 0 0 0.166667 0 0 0 0.22 0"/>
<feBlend mode="normal" in2="BackgroundImageFix" result="effect1_dropShadow"/>
<feBlend mode="normal" in="SourceGraphic" in2="effect1_dropShadow" result="shape"/>
</filter>
<filter id="filter2_d" x="37.5703" y="69.2935" width="39.2594" height="38.8027" filterUnits="userSpaceOnUse" color-interpolation-filters="sRGB">
<feFlood flood-opacity="0" result="BackgroundImageFix"/>
<feColorMatrix in="SourceAlpha" type="matrix" values="0 0 0 0 0 0 0 0 0 0 0 0 0 0 0 0 0 0 127 0"/>
<feOffset dy="4"/>
<feGaussianBlur stdDeviation="8"/>
<feColorMatrix type="matrix" values="0 0 0 0 1 0 0 0 0 0.566667 0 0 0 0 0.166667 0 0 0 0.22 0"/>
<feBlend mode="normal" in2="BackgroundImageFix" result="effect1_dropShadow"/>
<feBlend mode="normal" in="SourceGraphic" in2="effect1_dropShadow" result="shape"/>
</filter>
<filter id="filter3_d" x="47.8523" y="69.2935" width="39.2594" height="38.8027" filterUnits="userSpaceOnUse" color-interpolation-filters="sRGB">
<feFlood flood-opacity="0" result="BackgroundImageFix"/>
<feColorMatrix in="SourceAlpha" type="matrix" values="0 0 0 0 0 0 0 0 0 0 0 0 0 0 0 0 0 0 127 0"/>
<feOffset dy="4"/>
<feGaussianBlur stdDeviation="8"/>
<feColorMatrix type="matrix" values="0 0 0 0 1 0 0 0 0 0.566667 0 0 0 0 0.166667 0 0 0 0.22 0"/>
<feBlend mode="normal" in2="BackgroundImageFix" result="effect1_dropShadow"/>
<feBlend mode="normal" in="SourceGraphic" in2="effect1_dropShadow" result="shape"/>
</filter>
<filter id="filter4_d" x="58.137" y="69.2935" width="39.2594" height="38.8027" filterUnits="userSpaceOnUse" color-interpolation-filters="sRGB">
<feFlood flood-opacity="0" result="BackgroundImageFix"/>
<feColorMatrix in="SourceAlpha" type="matrix" values="0 0 0 0 0 0 0 0 0 0 0 0 0 0 0 0 0 0 127 0"/>
<feOffset dy="4"/>
<feGaussianBlur stdDeviation="8"/>
<feColorMatrix type="matrix" values="0 0 0 0 1 0 0 0 0 0.566667 0 0 0 0 0.166667 0 0 0 0.22 0"/>
<feBlend mode="normal" in2="BackgroundImageFix" result="effect1_dropShadow"/>
<feBlend mode="normal" in="SourceGraphic" in2="effect1_dropShadow" result="shape"/>
</filter>
<clipPath id="clip0">
<rect width="42.7445" height="14.4534" fill="white" transform="translate(33.8828 53.0234)"/>
</clipPath>
</defs>
</svg>
