<svg width="22" height="22" viewBox="0 0 22 22" fill="none" xmlns="http://www.w3.org/2000/svg">
<path d="M0 2.75C0 1.23131 1.23131 0 2.75 0H19.25C20.7687 0 22 1.23131 22 2.75V8.25V13.75V19.25C22 20.7687 20.7687 22 19.25 22H2.75C1.23131 22 0 20.7687 0 19.25V13.75V8.25V2.75ZM9.625 6.875V11H11.6875C12.8262 11 13.75 10.0765 13.75 8.9375C13.75 7.79854 12.8265 6.875 11.6875 6.875H9.625ZM7.21875 4.8125C7.029 4.8125 6.875 4.9665 6.875 5.15625V16.8438C6.875 17.0335 7.029 17.1875 7.21875 17.1875H9.96875C10.1585 17.1875 10.3125 17.0335 10.3125 16.8438V13.0625H12.375C14.6531 13.0625 16.5 11.2156 16.5 8.9375C16.5 6.65935 14.6531 4.8125 12.375 4.8125H9.96875H8.9375H7.21875Z" fill="#FF4242"/>
</svg>
