<svg width="76" height="13" viewBox="0 0 76 13" fill="none" xmlns="http://www.w3.org/2000/svg">
<path d="M10.7081 4.89094L7.32651 4.35663L5.8108 1.01711C5.69759 0.767735 5.30205 0.767735 5.18885 1.01711L3.6736 4.35663L0.292026 4.89094C0.0142767 4.93503 -0.0966397 5.28443 0.0981514 5.49066L2.55481 8.09534L1.9741 11.7776C1.92781 12.0702 2.22985 12.2897 2.47965 12.146L5.50005 10.4194L8.52046 12.1465C8.76796 12.2887 9.07275 12.0735 9.026 11.7781L8.4453 8.09581L10.902 5.49114C11.0967 5.28443 10.9854 4.93503 10.7081 4.89094V4.89094Z" fill="#FFA552"/>
<path d="M27.6815 4.89094L23.9926 4.35663L22.3391 1.01711C22.2156 0.767735 21.7841 0.767735 21.6606 1.01711L20.0076 4.35663L16.3186 4.89094C16.0156 4.93503 15.8946 5.28443 16.1071 5.49066L18.7871 8.09534L18.1536 11.7776C18.1031 12.0702 18.4326 12.2897 18.7051 12.146L22.0001 10.4194L25.2951 12.1465C25.565 12.2887 25.8975 12.0735 25.8465 11.7781L25.2131 8.09581L27.893 5.49114C28.1055 5.28443 27.984 4.93503 27.6815 4.89094V4.89094Z" fill="#FFA552"/>
<path d="M43.6815 4.89094L39.9926 4.35663L38.3391 1.01711C38.2156 0.767735 37.7841 0.767735 37.6606 1.01711L36.0076 4.35663L32.3186 4.89094C32.0156 4.93503 31.8946 5.28443 32.1071 5.49066L34.7871 8.09534L34.1536 11.7776C34.1031 12.0702 34.4326 12.2897 34.7051 12.146L38.0001 10.4194L41.2951 12.1465C41.565 12.2887 41.8975 12.0735 41.8465 11.7781L41.2131 8.09581L43.893 5.49114C44.1055 5.28443 43.984 4.93503 43.6815 4.89094V4.89094Z" fill="#FFA552"/>
<path d="M59.7081 4.89094L56.3265 4.35663L54.8108 1.01711C54.6976 0.767735 54.3021 0.767735 54.1888 1.01711L52.6736 4.35663L49.292 4.89094C49.0143 4.93503 48.9034 5.28443 49.0982 5.49066L51.5548 8.09534L50.9741 11.7776C50.9278 12.0702 51.2299 12.2897 51.4796 12.146L54.5001 10.4194L57.5205 12.1465C57.768 12.2887 58.0728 12.0735 58.026 11.7781L57.4453 8.09581L59.902 5.49114C60.0967 5.28443 59.9854 4.93503 59.7081 4.89094V4.89094Z" fill="#FFA552"/>
<path d="M75.7081 4.89094L72.3265 4.35663L70.8108 1.01711C70.6976 0.767735 70.3021 0.767735 70.1888 1.01711L68.6736 4.35663L65.292 4.89094C65.0143 4.93503 64.9034 5.28443 65.0982 5.49066L67.5548 8.09534L66.9741 11.7776C66.9278 12.0702 67.2299 12.2897 67.4796 12.146L70.5001 10.4194L73.5205 12.1465C73.768 12.2887 74.0728 12.0735 74.026 11.7781L73.4453 8.09581L75.902 5.49114C76.0967 5.28443 75.9854 4.93503 75.7081 4.89094V4.89094Z" fill="#FFA552"/>
</svg>
